<svg width="23" height="24" viewBox="0 0 23 24" fill="none" xmlns="http://www.w3.org/2000/svg">
<path d="M18.7702 12.8132V6.3132C18.7702 5.28753 17.9388 4.45605 16.9131 4.45605H5.77023C4.74456 4.45605 3.91309 5.28753 3.91309 6.3132V12.8132M18.7702 12.8132V17.4561C18.7702 18.4817 17.9388 19.3132 16.9131 19.3132H5.77023C4.74456 19.3132 3.91309 18.4817 3.91309 17.4561V12.8132M18.7702 12.8132H16.3691C16.1229 12.8132 15.8867 12.911 15.7125 13.0852L13.4708 15.3269C13.2966 15.5011 13.0604 15.5989 12.8142 15.5989H9.86914C9.62287 15.5989 9.38668 15.5011 9.21254 15.3269L6.97077 13.0852C6.79663 12.911 6.56045 12.8132 6.31417 12.8132H3.91309" stroke="black" stroke-width="1.67143" stroke-linecap="round" stroke-linejoin="round"/>
</svg>
