<svg width="23" height="23" viewBox="0 0 23 23" fill="none" xmlns="http://www.w3.org/2000/svg">
<path d="M15.9845 13.2564V18.8278M13.1988 16.0421H18.7702M5.77023 9.54213H7.62737C8.65304 9.54213 9.48451 8.71066 9.48451 7.68499V5.82785C9.48451 4.80217 8.65304 3.9707 7.62737 3.9707H5.77023C4.74456 3.9707 3.91309 4.80217 3.91309 5.82785V7.68499C3.91309 8.71066 4.74456 9.54213 5.77023 9.54213ZM15.0559 9.54213H16.9131C17.9388 9.54213 18.7702 8.71066 18.7702 7.68499V5.82785C18.7702 4.80217 17.9388 3.9707 16.9131 3.9707H15.0559C14.0303 3.9707 13.1988 4.80217 13.1988 5.82785V7.68499C13.1988 8.71066 14.0303 9.54213 15.0559 9.54213ZM5.77023 18.8278H7.62737C8.65304 18.8278 9.48451 17.9964 9.48451 16.9707V15.1136C9.48451 14.0879 8.65304 13.2564 7.62737 13.2564H5.77023C4.74456 13.2564 3.91309 14.0879 3.91309 15.1136V16.9707C3.91309 17.9964 4.74456 18.8278 5.77023 18.8278Z" stroke="black" stroke-width="1.67143" stroke-linecap="round" stroke-linejoin="round"/>
</svg>
