<svg width="23" height="23" viewBox="0 0 23 23" fill="none" xmlns="http://www.w3.org/2000/svg">
<path d="M12.2701 15.5717V6.28599C12.2701 5.77316 11.8544 5.35742 11.3415 5.35742H3.91295C3.40011 5.35742 2.98438 5.77316 2.98438 6.28599V15.5717C2.98438 16.0845 3.40011 16.5003 3.91295 16.5003H4.84152M12.2701 15.5717C12.2701 16.0845 11.8544 16.5003 11.3415 16.5003H8.5558M12.2701 15.5717L12.2701 8.14314C12.2701 7.6303 12.6858 7.21456 13.1987 7.21456H15.5997C15.846 7.21456 16.0822 7.3124 16.2563 7.48654L19.4267 10.6569C19.6008 10.831 19.6987 11.0672 19.6987 11.3135V15.5717C19.6987 16.0845 19.2829 16.5003 18.7701 16.5003H17.8415M12.2701 15.5717C12.2701 16.0845 12.6858 16.5003 13.1987 16.5003H14.1272M4.84152 16.5003C4.84152 17.5259 5.67299 18.3574 6.69866 18.3574C7.72433 18.3574 8.5558 17.5259 8.5558 16.5003M4.84152 16.5003C4.84152 15.4746 5.67299 14.6431 6.69866 14.6431C7.72433 14.6431 8.5558 15.4746 8.5558 16.5003M14.1272 16.5003C14.1272 17.5259 14.9587 18.3574 15.9844 18.3574C17.01 18.3574 17.8415 17.5259 17.8415 16.5003M14.1272 16.5003C14.1272 15.4746 14.9587 14.6431 15.9844 14.6431C17.01 14.6431 17.8415 15.4746 17.8415 16.5003" stroke="black" stroke-width="1.67143"/>
</svg>
