<svg width="50" height="50" viewBox="0 0 50 50" fill="none" xmlns="http://www.w3.org/2000/svg">
<path d="M21.6288 18.3288H19.7717C18.746 18.3288 17.9146 19.1603 17.9146 20.186V31.3288C17.9146 32.3545 18.746 33.186 19.7717 33.186H29.0574C30.0831 33.186 30.9146 32.3545 30.9146 31.3288V30.4003M21.6288 18.3288C21.6288 19.3545 22.4603 20.186 23.486 20.186H25.3431C26.3688 20.186 27.2003 19.3545 27.2003 18.3288M21.6288 18.3288C21.6288 17.3032 22.4603 16.4717 23.486 16.4717H25.3431C26.3688 16.4717 27.2003 17.3032 27.2003 18.3288M27.2003 18.3288H29.0574C30.0831 18.3288 30.9146 19.1603 30.9146 20.186V22.9717M32.7717 26.686H23.486M23.486 26.686L26.2717 23.9003M23.486 26.686L26.2717 29.4717" stroke="black" style="stroke:black;stroke-opacity:1;" stroke-width="1.67143" stroke-linecap="round" stroke-linejoin="round"/>
</svg>
