<svg width="23" height="23" viewBox="0 0 23 23" fill="none" xmlns="http://www.w3.org/2000/svg">
<path d="M9.78581 4.20759C10.1818 2.57664 12.5013 2.57664 12.8972 4.20759C13.153 5.26117 14.3601 5.76115 15.2859 5.19702C16.7192 4.32374 18.3593 5.96388 17.486 7.39712C16.9219 8.32297 17.4219 9.53004 18.4754 9.78581C20.1064 10.1818 20.1064 12.5013 18.4754 12.8972C17.4219 13.153 16.9219 14.3601 17.486 15.2859C18.3593 16.7192 16.7192 18.3593 15.2859 17.486C14.3601 16.9219 13.153 17.4219 12.8972 18.4754C12.5013 20.1064 10.1818 20.1064 9.78581 18.4754C9.53004 17.4219 8.32297 16.9219 7.39712 17.486C5.96389 18.3593 4.32374 16.7192 5.19702 15.2859C5.76115 14.3601 5.26117 13.153 4.20759 12.8972C2.57664 12.5013 2.57664 10.1818 4.20759 9.78581C5.26117 9.53004 5.76115 8.32297 5.19702 7.39712C4.32374 5.96388 5.96389 4.32374 7.39712 5.19702C8.32297 5.76115 9.53004 5.26117 9.78581 4.20759Z" stroke="black" stroke-width="1.67143" stroke-linecap="round" stroke-linejoin="round"/>
<path d="M14.1272 11.3415C14.1272 12.88 12.88 14.1272 11.3415 14.1272C9.80301 14.1272 8.5558 12.88 8.5558 11.3415C8.5558 9.80301 9.80301 8.5558 11.3415 8.5558C12.88 8.5558 14.1272 9.80301 14.1272 11.3415Z" stroke="#64748B" stroke-width="1.67143" stroke-linecap="round" stroke-linejoin="round"/>
</svg>
